<?xml version="1.0" encoding="utf-8"?>
<!-- Generator: Adobe Illustrator 17.0.0, SVG Export Plug-In . SVG Version: 6.00 Build 0)  -->
<!DOCTYPE svg PUBLIC "-//W3C//DTD SVG 1.1//EN" "http://www.w3.org/Graphics/SVG/1.1/DTD/svg11.dtd">
<svg version="1.1" id="圖層_1" xmlns="http://www.w3.org/2000/svg" xmlns:xlink="http://www.w3.org/1999/xlink" x="0px" y="0px"
	 width="960px" height="560px" viewBox="0 0 960 560" enable-background="new 0 0 960 560" xml:space="preserve">
<g>
	<path fill="#FFFFFF" d="M340.363,343.537l-63.4-29.275V194.958h126.801v119.304L340.363,343.537z M281.623,311.281l58.74,27.123
		l58.741-27.123V199.619H281.623V311.281z"/>
</g>
<text transform="matrix(1 0 0 1 421.9005 257.8228)" fill="#FFFFFF" font-family="'LiGothicMed'" font-size="48.5336">中午吃什麼</text>
<text transform="matrix(1 0 0 1 424.338 313.8676)" fill="#FFFFFF" font-family="'DINAlternate-Bold'" font-size="28.5349">Lunch Everyday</text>
<g>
	<path fill="#FFFFFF" d="M355.115,250.895c0.722,0.178,8.573,2.41,15.672-5.996c7.1-8.406,8.461-15.323,4.03-19.91
		c-4.612-4.405-11.521-3.004-19.887,4.144c-8.365,7.147-6.089,14.985-5.907,15.706c0.117,0.462,0.766,2.119,0.7,2.974
		c-4.091,4.244-27.569,28.933-45.03,39.983c-3.455,2.186,0.921,6.85,0.921,6.85s4.522,4.676,6.798,0.825
		c7.064-11.956,35.381-41.144,39.602-45.26C352.868,250.139,354.652,250.78,355.115,250.895z"/>
	<path fill="#FFFFFF" d="M303.898,230.005c0,0-0.573,0.066,0.579,1.594c1.153,1.526,11.086,18.652,17.784,19.718
		c0,0,3.127,0.692,5.996,0.364c0,0,2.487,0.058,4.853,2.538c2.367,2.48,11.809,13.221,20.28,22.452
		c10.153,11.065,18.123,23.306,22.178,17.985c0,0,4.456-2.946-2.512-8.984c-6.968-6.038-25.249-20.78-25.249-20.78
		s-11.316-9.98-13.042-12.08c-1.73-2.099-2.817-3.435-2.637-7.198c0.181-3.763-2.063-8.157-5.897-10.697
		c-3.833-2.539-15.338-11.818-16.294-11.367c0,0-0.403,0.107,0.364,0.87c0.768,0.763,12.491,11.996,12.662,12.421
		c0.172,0.424-0.463,1.318-1.529,0.258c-1.066-1.06-12.96-12.291-13.596-11.737c-0.636,0.554,2.647,3.734,4.053,5.132
		c1.407,1.399,8.654,8.351,8.487,9.116c0,0-0.423,0.852-1.404-0.124c-0.981-0.975-12.62-12.548-13.425-11.653
		c0,0-1.104,0.599,7.422,8.652c0,0,5.328,5.129,4.948,5.853c-0.38,0.723-1.016,1.447-2.552-0.333
		C313.833,240.222,304.493,229.749,303.898,230.005z"/>
</g>
</svg>
