<?xml version="1.0" encoding="utf-8"?>
<!-- Generator: Adobe Illustrator 17.0.0, SVG Export Plug-In . SVG Version: 6.00 Build 0)  -->
<!DOCTYPE svg PUBLIC "-//W3C//DTD SVG 1.1//EN" "http://www.w3.org/Graphics/SVG/1.1/DTD/svg11.dtd">
<svg version="1.1" id="圖層_1" xmlns="http://www.w3.org/2000/svg" xmlns:xlink="http://www.w3.org/1999/xlink" x="0px" y="0px"
	 width="177.365px" height="69.032px" viewBox="0 0 177.365 69.032" enable-background="new 0 0 177.365 69.032"
	 xml:space="preserve">
<g>
	<path fill="#6BA8DB" d="M46.353,58.666L26.177,49.35V11.384H66.53V49.35L46.353,58.666z M27.66,48.401l18.693,8.631l18.693-8.631
		V12.867H27.66V48.401z"/>
</g>
<text transform="matrix(1 0 0 1 72.3008 42.8276)" fill="#6BA8DB" font-family="'LiGothicMed'" font-size="15.4449">中午吃什麼</text>
<text transform="matrix(1 0 0 1 72.3008 25.0735)" fill="#6BA8DB" font-family="'LiGothicMed'" font-size="15.4449">信義區</text>
<text transform="matrix(1 0 0 1 72.3008 55.4315)" fill="#6BA8DB" font-family="'DINAlternate-Bold'" font-size="9.0807">Lunch Everyday</text>
<g>
	<path fill="#6BA8DB" d="M51.048,29.185c0.23,0.057,2.728,0.767,4.987-1.908c2.259-2.675,2.693-4.876,1.282-6.336
		c-1.468-1.402-3.666-0.956-6.329,1.319c-2.662,2.274-1.938,4.769-1.88,4.998c0.037,0.147,0.244,0.674,0.223,0.946
		c-1.302,1.351-8.773,9.207-14.33,12.724c-1.099,0.696,0.293,2.18,0.293,2.18s1.439,1.488,2.163,0.262
		c2.248-3.805,11.259-13.093,12.602-14.403C50.333,28.944,50.9,29.148,51.048,29.185z"/>
	<path fill="#6BA8DB" d="M34.749,22.537c0,0-0.182,0.021,0.184,0.507c0.367,0.486,3.528,5.936,5.659,6.275
		c0,0,0.995,0.22,1.908,0.116c0,0,0.792,0.018,1.544,0.808c0.753,0.789,3.758,4.207,6.454,7.145
		c3.231,3.521,5.767,7.417,7.058,5.723c0,0,1.418-0.938-0.799-2.859c-2.218-1.922-8.035-6.613-8.035-6.613s-3.601-3.176-4.15-3.844
		c-0.55-0.668-0.896-1.093-0.839-2.291c0.058-1.198-0.657-2.596-1.876-3.404c-1.22-0.808-4.881-3.761-5.185-3.617
		c0,0-0.128,0.034,0.116,0.277c0.244,0.243,3.975,3.818,4.029,3.953c0.055,0.135-0.147,0.42-0.487,0.082
		c-0.339-0.337-4.124-3.911-4.327-3.735c-0.203,0.176,0.842,1.188,1.29,1.633c0.448,0.445,2.754,2.657,2.701,2.901
		c0,0-0.135,0.271-0.447-0.039c-0.312-0.31-4.016-3.993-4.272-3.708c0,0-0.351,0.191,2.362,2.753c0,0,1.696,1.632,1.575,1.863
		c-0.121,0.23-0.323,0.461-0.812-0.106C37.911,25.788,34.938,22.455,34.749,22.537z"/>
</g>
</svg>
